<?xml version="1.0" encoding="utf-8"?>
<!-- Generator: Adobe Illustrator 24.0.1, SVG Export Plug-In . SVG Version: 6.00 Build 0)  -->
<svg version="1.1" id="Режим_изоляции"
	 xmlns="http://www.w3.org/2000/svg" xmlns:xlink="http://www.w3.org/1999/xlink" x="0px" y="0px" viewBox="0 0 396.3 73.5"
	 style="enable-background:new 0 0 396.3 73.5;" xml:space="preserve">
<style type="text/css">
	.st0{fill:#FFFFFF;}
</style>
<g>
	<path class="st0" d="M9.6,7.6l-7.5,2.6L0,4.5l12.2-4.5h4.7v36.5H9.6V7.6z"/>
	<path class="st0" d="M27.7,16.5h167.5v5.9H27.7V16.5z"/>
	<path class="st0" d="M238.4,24.6c0,8.3-5.5,12.5-14.4,12.5c-8.9,0-14.7-4.4-14.7-11.4v-0.6h6.8v0.2c0,3.3,3.2,5.4,7.6,5.4
		c5,0,7.4-2.4,7.4-6.4c0-4.2-2.5-6.7-7.8-6.7c-2.6,0-5.4,1.1-6.6,2.5h-6.2L211.8,0H236v6.4h-18.1l-0.5,7.2c1.8-1,4.6-1.7,7.4-1.7
		C233.1,11.9,238.4,16.9,238.4,24.6z"/>
	<path class="st0" d="M280.9,8.2v28.2h-6.7V20.1l-16.3,16.5H254V8.4h6.8v16.3l16.4-16.5H280.9z"/>
	<path class="st0" d="M288.4,8.4h7.1v12.1h5.3c0.8-7.8,6.8-12.7,15.3-12.7c9.1,0,15.3,5.7,15.3,14.6c0,9-6.2,14.7-15.3,14.7
		c-7.7,0-13.4-4.1-14.9-10.7h-5.6v10.1h-7.1V8.4z M316,30.5c4.7,0,8-3.2,8-8.2c0-4.9-3.2-8.1-8-8.1c-4.7,0-8,3.2-8,8.1
		C308,27.3,311.3,30.5,316,30.5z"/>
	<path class="st0" d="M344.3,8.4v12h12.6v-12h7.1v28h-7.1V26.3h-12.6v10.1h-7.1v-28H344.3z"/>
	<path class="st0" d="M376,27.2c-3.6-1.4-5.4-4.3-5.4-8.7c0-7,4-10.2,12.3-10.2h13.6v28h-7.1v-8.2h-6.4l-5.2,8.2H370L376,27.2z
		 M377.8,18.5c0,2.9,1.7,4.4,5.1,4.4h6.5v-8.7h-6.3C379.6,14.2,377.8,15.7,377.8,18.5z"/>
</g>
<g>
	<path class="st0" d="M0.8,59c0-6,3.8-9.6,9.5-9.6c3.7,0,6.3,1.4,8,3.6l-1.8,1.5c-1.3-1.8-3.4-3-6.3-3c-4.2,0-7.2,2.8-7.2,7.5
		c0,4.7,3,7.7,7.2,7.7c2.8,0,5-1.2,6.3-2.9l1.8,1.5c-1.8,2.2-4.3,3.6-8,3.6C4.7,68.8,0.8,65,0.8,59z"/>
	<path class="st0" d="M21.1,61.2c0-4.4,3.2-7.4,7.8-7.4s7.8,3,7.8,7.4c0,4.5-3.2,7.5-7.8,7.5S21.1,65.7,21.1,61.2z M34.5,61.2
		c0-3.2-2.3-5.4-5.6-5.4c-3.3,0-5.6,2.2-5.6,5.4c0,3.3,2.3,5.5,5.6,5.5C32.2,66.7,34.5,64.5,34.5,61.2z"/>
	<path class="st0" d="M41.7,54.1v4.1c0,2.9,1.9,3.9,4.6,3.9c0.9,0,2.3-0.1,3.8-0.5v-7.5h2.1v14.4h-2.1v-5.1c-1.3,0.4-2.7,0.5-4,0.5
		c-3.6,0-6.6-1.4-6.6-5.5v-4.3H41.7z"/>
	<path class="st0" d="M70.3,53.9v14.6h-2V57.8L58.2,68.7H57V54.1h2v10.7l10.1-10.9H70.3z"/>
	<path class="st0" d="M81.3,58.7H124v1.8H81.3V58.7z"/>
	<path class="st0" d="M133.8,61.4l4.6-6.8l1.5,1.1l-4,5.7l4,5.7l-1.5,1.1L133.8,61.4z M139.9,61.4l4.6-6.8l1.5,1.1l-4,5.7l4,5.7
		l-1.5,1.1L139.9,61.4z"/>
	<path class="st0" d="M152.1,49.7v9.2l9.2-9.2h3.1l-9.3,9.3l10.4,9.4h-3.4l-10-9v9h-2.2V49.7H152.1z"/>
	<path class="st0" d="M170.7,54.1v1.6c1.4-1.4,3.5-1.9,5.1-1.9c4.2,0,7.1,2.8,7.1,7.4c0,4.6-2.8,7.5-7.2,7.5c-1.6,0-3.6-0.4-5-2v6.3
		h-2.1v-19H170.7z M170.7,64.3c1.1,1.8,3.1,2.5,4.8,2.5c3.1,0,5.2-2.1,5.2-5.5c0-3.4-2.1-5.4-5.1-5.4c-1.8,0-3.7,0.8-4.9,2.4V64.3z"
		/>
	<path class="st0" d="M185.8,64.3c0-3.3,2.8-4.7,6.1-4.7h5v-0.3c0-2.5-2.2-3.7-4.4-3.7c-1.9,0-3.8,0.8-4.6,2.3l-1.5-1.5
		c1.4-1.8,3.7-2.7,6.1-2.7c3.3,0,6.5,1.8,6.5,5.6v9.2h-2.1v-1.8c-1.2,1.4-2.9,2.2-5.2,2.2C188.4,68.9,185.8,67.4,185.8,64.3z
		 M187.9,64.3c0,1.9,1.6,2.8,3.9,2.8c3.3,0,5.1-2.1,5.1-4.4v-1.1h-5.1C189.4,61.5,187.9,62.4,187.9,64.3z"/>
	<path class="st0" d="M202.8,61.2c0-4.5,3.1-7.4,7.7-7.4c2.4,0,4.6,1,5.9,2.6l-1.5,1.5c-0.9-1.2-2.6-2.1-4.4-2.1
		c-3.4,0-5.5,2.1-5.5,5.4c0,3.3,2.1,5.5,5.4,5.5c2,0,3.7-0.9,4.6-2.1l1.5,1.4c-1.3,1.6-3.6,2.7-6.2,2.7
		C205.6,68.7,202.8,65.8,202.8,61.2z"/>
	<path class="st0" d="M222.2,54.1v6.8h8.8v-6.8h2.1v14.4H231v-5.6h-8.8v5.6h-2.1V54.1H222.2z"/>
	<path class="st0" d="M236.9,64.3c0-3.3,2.8-4.7,6.1-4.7h5v-0.3c0-2.5-2.2-3.7-4.4-3.7c-1.9,0-3.8,0.8-4.6,2.3l-1.5-1.5
		c1.4-1.8,3.7-2.7,6.1-2.7c3.3,0,6.5,1.8,6.5,5.6v9.2H248v-1.8c-1.2,1.4-2.9,2.2-5.2,2.2C239.5,68.9,236.9,67.4,236.9,64.3z
		 M239,64.3c0,1.9,1.6,2.8,3.9,2.8c3.3,0,5.1-2.1,5.1-4.4v-1.1h-5.1C240.5,61.5,239,62.4,239,64.3z"/>
	<path class="st0" d="M257.5,63.6c-2.1-0.6-3.3-2.2-3.3-4.6c0-3.4,2-4.9,5.9-4.9h6.6v14.4h-2.1v-4.5h-4.9l-3.2,4.5H254L257.5,63.6z
		 M259.9,62h4.7V56h-4.5c-2.5,0-3.7,0.9-3.7,2.9C256.5,61,257.7,62,259.9,62z"/>
	<path class="st0" d="M292.7,49.7v18.7h-2.2V51.8h-10.8v16.6h-2.2V49.7H292.7z"/>
	<path class="st0" d="M296.7,61.2c0-4.4,3.2-7.4,7.8-7.4c4.6,0,7.8,3,7.8,7.4c0,4.5-3.2,7.5-7.8,7.5
		C299.9,68.7,296.7,65.7,296.7,61.2z M310.1,61.2c0-3.2-2.3-5.4-5.6-5.4c-3.3,0-5.6,2.2-5.6,5.4c0,3.3,2.3,5.5,5.6,5.5
		C307.8,66.7,310.1,64.5,310.1,61.2z"/>
	<path class="st0" d="M314.4,68.4v-1.9c0.2,0,0.5,0,0.7,0c2.3,0,2.7-2.1,2.7-4.9v-7.5H329v14.4h-2.1V56h-6.9v5.8
		c0,4.9-1.4,6.6-4.6,6.6C315,68.5,314.7,68.5,314.4,68.4z"/>
	<path class="st0" d="M336.5,63.6c-2.1-0.6-3.3-2.2-3.3-4.6c0-3.4,2-4.9,5.9-4.9h6.6v14.4h-2.1v-4.5h-4.9l-3.2,4.5H333L336.5,63.6z
		 M338.9,62h4.7V56h-4.5c-2.5,0-3.7,0.9-3.7,2.9C335.5,61,336.7,62,338.9,62z"/>
	<path class="st0" d="M352.7,54.1v6.8h8.8v-6.8h2.1v14.4h-2.1v-5.6h-8.8v5.6h-2.1V54.1H352.7z"/>
	<path class="st0" d="M367.4,64.3c0-3.3,2.8-4.7,6.1-4.7h5v-0.3c0-2.5-2.2-3.7-4.4-3.7c-1.9,0-3.8,0.8-4.6,2.3l-1.5-1.5
		c1.4-1.8,3.7-2.7,6.1-2.7c3.3,0,6.5,1.8,6.5,5.6v9.2h-2.1v-1.8c-1.2,1.4-2.9,2.2-5.2,2.2C370,68.9,367.4,67.4,367.4,64.3z
		 M369.5,64.3c0,1.9,1.6,2.8,3.9,2.8c3.3,0,5.1-2.1,5.1-4.4v-1.1h-5.1C371,61.5,369.5,62.4,369.5,64.3z"/>
	<path class="st0" d="M384.2,67.1l4-5.7l-4-5.7l1.5-1.1l4.6,6.8l-4.6,6.8L384.2,67.1z M390.2,67.1l4-5.7l-4-5.7l1.5-1.1l4.6,6.8
		l-4.6,6.8L390.2,67.1z"/>
</g>
</svg>
