<?xml version="1.0" encoding="utf-8"?>
<!-- Generator: Adobe Illustrator 24.0.1, SVG Export Plug-In . SVG Version: 6.00 Build 0)  -->
<svg version="1.1" id="Режим_изоляции"
	 xmlns="http://www.w3.org/2000/svg" xmlns:xlink="http://www.w3.org/1999/xlink" x="0px" y="0px" viewBox="0 0 787.9 103.6"
	 style="enable-background:new 0 0 787.9 103.6;" xml:space="preserve">
<style type="text/css">
	.st0{fill:#FFFFFF;}
</style>
<g>
	<path class="st0" d="M52.3,72.2h18.3V75c-5.2,3.3-10.1,4.8-16.3,4.8c-15.4,0-25.8-13.4-25.8-28.4c0-14.3,10.9-26.9,25.8-26.9
		c7.1,0,13.1,1.6,18.4,4.6l-0.7,6l20,2.4l3-23.6C84.3,3.7,69-0.7,54.3-0.7C25.3-0.7,0,21.5,0,51.4c0,29.7,24.8,52.1,54.3,52.1
		c16.4,0,31.3-4.8,44.4-15V49.7H52.3V72.2z"/>
	<path class="st0" d="M134.9,0v18.9h8.5l-40.9,82.7h29.7l7.3-16.1H179l7.6,16.1h29.7L166,0H134.9z M149.6,62.8l9.7-22.3l9.9,22.3
		H149.6z"/>
	<path class="st0" d="M267.9,39c-3.6-0.7-6.5-1.6-8.6-2.2c-3.9-1-8.8-2.9-8.8-7.6c0-5.3,5.8-6.8,10.1-6.8c9.8,0,21.2,3.3,30.1,6.6
		l11.2-21.5c-13.1-5-26.5-8.4-40.6-8.4c-19.7,0-39,9.8-39,32.3c0,22.5,19.3,27.8,38,32c3.2,0.7,6.2,1.6,8.4,2.3
		c3.5,1.2,8.6,2.9,8.6,7.3c0,4.9-3.9,7.2-11.5,7.2c-7.6,0-15.1-0.9-22.6-2.6l0.9-7.6l-20.2-2.4l-3,25.8l-0.1,0.3
		c15.7,7.8,26.1,9.8,44.1,9.8c20.3,0,40.8-9.2,40.8-32.8C305.5,49.1,286,43.2,267.9,39z"/>
	<polygon class="st0" points="310.8,23.8 341,23.8 341,83.4 328.8,83.4 328.8,102.1 381.9,102.1 381.9,83.4 369.1,83.4 369.1,23.8 
		399.2,23.8 399.2,0.6 310.8,0.6 	"/>
	<path class="st0" d="M480.3,74.5c14.1-7.3,18.9-20.2,18.9-35.4c0-25.6-16.3-38.5-41.9-38.5h-47.7v101.5h28.1V79.8h15l16.3,22.3
		h31.7V83.4h-13.3L480.3,74.5z M450.1,57.6h-12.4V23.8h14.8c11.4,0,17.3,6.5,17.3,17.3C469.8,52.7,461,57.6,450.1,57.6z"/>
	<polygon class="st0" points="542.6,64 578.5,64 578.5,41.6 542.6,41.6 542.6,23.6 594.2,23.6 594.2,0.6 515.4,0.6 515.4,102 
		597.2,102 597.2,78.9 542.6,78.9 	"/>
	<polygon class="st0" points="639,64 674.8,64 674.8,41.6 639,41.6 639,23.6 690.5,23.6 690.5,0.6 611.7,0.6 611.7,102 693.6,102 
		693.6,78.9 639,78.9 	"/>
	<polygon class="st0" points="699.4,23.8 729.7,23.8 729.7,83.4 717.4,83.4 717.4,102.1 770.6,102.1 770.6,83.4 757.8,83.4 
		757.8,23.8 787.9,23.8 787.9,0.6 699.4,0.6 	"/>
</g>
</svg>
